<?xml version="1.0" encoding="UTF-8" standalone="no"?>
<!-- Created with Inkscape (http://www.inkscape.org/) -->

<svg
   width="100"
   height="100"
   viewBox="0 0 26.458333 26.458333"
   version="1.1"
   id="svg2481"
   inkscape:version="1.2.2 (732a01da63, 2022-12-09)"
   sodipodi:docname="projects.svg"
   xmlns:inkscape="http://www.inkscape.org/namespaces/inkscape"
   xmlns:sodipodi="http://sodipodi.sourceforge.net/DTD/sodipodi-0.dtd"
   xmlns="http://www.w3.org/2000/svg"
   xmlns:svg="http://www.w3.org/2000/svg">
  <sodipodi:namedview
     id="namedview2483"
     pagecolor="#505050"
     bordercolor="#ffffff"
     borderopacity="1"
     inkscape:showpageshadow="0"
     inkscape:pageopacity="0"
     inkscape:pagecheckerboard="1"
     inkscape:deskcolor="#505050"
     inkscape:document-units="mm"
     showgrid="false"
     inkscape:zoom="11.313709"
     inkscape:cx="67.749665"
     inkscape:cy="43.310288"
     inkscape:window-width="2880"
     inkscape:window-height="1766"
     inkscape:window-x="-11"
     inkscape:window-y="1609"
     inkscape:window-maximized="1"
     inkscape:current-layer="layer1" />
  <defs
     id="defs2478" />
  <g
     inkscape:label="Warstwa 1"
     inkscape:groupmode="layer"
     id="layer1">
    <path
       id="path4156"
       style="stroke-width:2.09838"
       d="M 11.875071,5.7319346 C 8.5844182,5.7338189 1.9978442,5.6969129 2.0032734,5.6751635 2.0557592,5.9361292 1.6886376,22.96556 1.973735,22.96556 h 22.346612 c 0,0 -0.02297,-16.8461618 -0.0393,-17.3191788 -0.0059,-0.1726542 -8.270557,0.083185 -12.405982,0.085553 z M 2.9655521,8.7593815 H 6.9829945 V 10.767776 H 2.9655521 Z m 6.2621196,0 H 23.169599 V 10.767776 H 9.2276717 Z M 9.1689261,12.008581 H 23.110856 v 2.008396 H 9.1689273 Z m -6.2033752,0.08811 h 4.0174436 v 2.009047 H 2.9655521 Z m -0.088769,4.00243 H 6.8942241 V 18.10817 H 2.8767834 Z m 6.2621195,0 H 23.081481 V 18.10817 H 9.1389027 Z m -0.058744,3.2492 H 23.022086 V 21.35737 H 9.0801582 Z m -6.2033749,0.08877 h 4.0174424 v 2.009048 H 2.8767834 Z"
       sodipodi:nodetypes="acscsacccccccccccccccccccccccccccccccccccccccc" />
  </g>
</svg>
